<?xml version="1.0" encoding="UTF-8" standalone="no"?>
<!-- Created with Inkscape (http://www.inkscape.org/) -->

<svg
   xmlns:dc="http://purl.org/dc/elements/1.1/"
   xmlns:cc="http://creativecommons.org/ns#"
   xmlns:rdf="http://www.w3.org/1999/02/22-rdf-syntax-ns#"
   xmlns:svg="http://www.w3.org/2000/svg"
   xmlns="http://www.w3.org/2000/svg"
   xmlns:sodipodi="http://sodipodi.sourceforge.net/DTD/sodipodi-0.dtd"
   xmlns:inkscape="http://www.inkscape.org/namespaces/inkscape"
   width="600"
   height="600"
   viewBox="0 0 158.74999 158.75"
   version="1.1"
   id="svg3938"
   inkscape:version="0.92.1 r15371"
   sodipodi:docname="AppList.TargetSize.svg"
   inkscape:export-filename="C:\Users\ststa\Desktop\Soundboard assets\AppList.scale-400.png"
   inkscape:export-xdpi="28.16"
   inkscape:export-ydpi="28.16">
  <defs
     id="defs3932" />
  <sodipodi:namedview
     id="base"
     pagecolor="#ffffff"
     bordercolor="#666666"
     borderopacity="1"
     inkscape:pageopacity="0.0"
     inkscape:pageshadow="2"
     inkscape:zoom="0.98994949"
     inkscape:cx="281.65696"
     inkscape:cy="287.5249"
     inkscape:document-units="px"
     inkscape:current-layer="layer1"
     showgrid="false"
     units="px"
     inkscape:window-width="1536"
     inkscape:window-height="801"
     inkscape:window-x="-8"
     inkscape:window-y="-8"
     inkscape:window-maximized="1"
     inkscape:pagecheckerboard="true" />
  <metadata
     id="metadata3935">
    <rdf:RDF>
      <cc:Work
         rdf:about="">
        <dc:format>image/svg+xml</dc:format>
        <dc:type
           rdf:resource="http://purl.org/dc/dcmitype/StillImage" />
        <dc:title></dc:title>
      </cc:Work>
    </rdf:RDF>
  </metadata>
  <g
     inkscape:label="Layer 1"
     inkscape:groupmode="layer"
     id="layer1"
     transform="translate(0,-138.24999)">
    <path
       id="path3817-1"
       d="m 122.97944,217.624 c 0,-24.08311 -19.52233,-43.60543 -43.605438,-43.60543 -24.083098,0 -43.605364,19.52232 -43.605364,43.60543 0,24.0831 19.522266,43.60535 43.605364,43.60535 24.083108,0 43.605438,-19.52225 43.605438,-43.60535"
       style="fill:#ffffff;fill-opacity:1;fill-rule:nonzero;stroke:none;stroke-width:0.5091902"
       inkscape:connector-curvature="0" />
    <path
       id="path3819-2"
       d="m 0,217.624 c 0,43.7685 35.607538,79.37598 79.374002,79.37598 4.747799,0 8.594579,-3.84876 8.594579,-8.59656 0,-4.74583 -3.84678,-8.59459 -8.594579,-8.59459 -34.288798,0 -62.184843,-27.89604 -62.184843,-62.18483 0,-34.2888 27.896045,-62.18486 62.184843,-62.18486 34.288808,0 62.184898,27.89606 62.184898,62.18486 0,4.7478 3.84871,8.59457 8.59651,8.59457 4.74583,0 8.59458,-3.84677 8.59458,-8.59457 0,-43.76647 -35.60747,-79.37401 -79.375988,-79.37401 C 35.607538,138.24999 0,173.85753 0,217.624"
       style="fill:#ffffff;fill-opacity:1;fill-rule:nonzero;stroke:none;stroke-width:0.5091902"
       inkscape:connector-curvature="0" />
  </g>
</svg>
